# xmcd
#
# Track frame offsets: 
#        150
#        19541
#        38609
#        59869
#        77074
#        95090
#        113556
#        132569
#        153501
#        172475
#        190625
#        209674
#        228103
#        244961
#        263556
#
# Disc length: 3791 seconds
#
# Revision: 0
# Processed by: cddbd v1.4PL0 Copyright (c) Steve Scherf et al.
# Submitted via: ExactAudioCopy v0.95a4
#
DISCID=d10ecd0f
DTITLE=Various Artist - 流淌的歌声_光阴的故事
DYEAR=2003
DGENRE=Pop
TTITLE0=光阴的故事
TTITLE1=达古拉
TTITLE2=牧羊曲
TTITLE3=八月桂花遍地开
TTITLE4=唱得幸福落满坡
TTITLE5=月朦胧鸟朦胧
TTITLE6=假如你要认识我
TTITLE7=北国之春
TTITLE8=玫瑰三愿
TTITLE9=剪羊毛
TTITLE10=让我们荡起双桨
TTITLE11=风中的承诺
TTITLE12=春天里的花园花儿多美丽
TTITLE13=浪花里飞出欢乐的歌
TTITLE14=在中国大陆上
EXTD=
EXTT0=
EXTT1=
EXTT2=
EXTT3=
EXTT4=
EXTT5=
EXTT6=
EXTT7=
EXTT8=
EXTT9=
EXTT10=
EXTT11=
EXTT12=
EXTT13=
EXTT14=
PLAYORDER=
